<svg aria-hidden="true" style="position: absolute; width: 0; height: 0; overflow: hidden;" version="1.1" xmlns="http://www.w3.org/2000/svg" xmlns:xlink="http://www.w3.org/1999/xlink">
    <style>
        .default-palette, .palette0 {color: currentColor;
            --color0: #dc54ee;
            --color1: #1f34d3;
            --color2: #6319da;
            --color3: #34a853;
            --color4: #4285f4;
            --color5: #fbbc04;
            --color6: #ea4335;
        }
    </style>
    <defs>
        <symbol id="icon-btn-close" viewBox="0 0 32 32">
            <path stroke-linejoin="miter" stroke-linecap="butt" stroke-miterlimit="4" stroke-width="2" d="M30.586 4.512l-11.488 11.488 11.488 11.488-3.098 3.098-11.488-11.488-11.488 11.488-3.098-3.098 11.488-11.488-11.488-11.488 3.098-3.098 11.488 11.488 11.488-11.488 3.098 3.098z"></path>
        </symbol>
        <symbol id="icon-Menu-burger" viewBox="0 0 46 32">
            <path stroke-linejoin="round" stroke-linecap="round" stroke-miterlimit="4" stroke-width="3.2" d="M1.6 1.6h42.24M1.6 15.68h42.24M1.6 29.76h42.24"></path>
        </symbol>
        <symbol id="icon-feature1" viewBox="0 0 32 32">
            <path d="M24 5.333c0.201 0 0.399 0.045 0.58 0.133s0.34 0.214 0.464 0.371l0.099 0.144 4 6.667c0.131 0.219 0.197 0.47 0.189 0.725s-0.088 0.502-0.232 0.712l-0.107 0.137-11.373 12.711c-0.211 0.215-0.463 0.387-0.741 0.503s-0.577 0.177-0.879 0.177c-0.533 0-1.047-0.187-1.48-0.556l-0.18-0.168-11.333-12.667c-0.171-0.19-0.283-0.425-0.323-0.678s-0.008-0.511 0.094-0.745l0.080-0.153 4.017-6.696 0.085-0.12c0.061-0.076 0.13-0.145 0.207-0.205l0.119-0.085 0.117-0.067 0.067-0.031 0.080-0.033 0.145-0.043 0.149-0.027 0.156-0.007h16zM12.152 10.591c-0.303-0.181-0.666-0.235-1.009-0.15s-0.637 0.304-0.819 0.607l-0.8 1.333-0.080 0.155c-0.102 0.235-0.134 0.495-0.092 0.748s0.156 0.489 0.328 0.679l2.667 2.933 0.12 0.117c0.247 0.211 0.562 0.325 0.887 0.32s0.637-0.128 0.877-0.347l0.116-0.12c0.211-0.247 0.325-0.562 0.32-0.887s-0.128-0.637-0.347-0.877l-2.001-2.2 0.291-0.484 0.073-0.137c0.134-0.298 0.154-0.635 0.056-0.946s-0.307-0.577-0.587-0.744z"></path>
        </symbol>
        <symbol id="icon-feature2" viewBox="0 0 32 32">
            <path d="M15.984 27.993c-5.688 0.115-11.027-4.411-11.847-10.043-0.472-2.285 0.033-4.933 1.983-6.407 2.399-1.961 6.349-1.467 8.111 1.108 0.985 1.303 1.112 2.968 1.199 4.532 0.533 3.36 3.792 5.991 7.189 5.827 1.427-0.020 2.72-0.741 3.952-1.385-2.008 3.845-6.239 6.421-10.587 6.368zM29.333 15.991c0.052-5.64-3.869-11.047-9.273-12.696-4.836-1.575-10.503-0.111-13.893 3.703-3.627 3.92-4.596 10.084-2.148 14.864 2.269 4.653 7.388 7.761 12.58 7.447 5.355-0.215 10.377-3.955 11.992-9.084 0.451-1.367 0.687-2.799 0.743-4.233z"></path>
        </symbol>
        <symbol id="icon-feature3" viewBox="0 0 32 32">
            <path d="M24.196 8.977c-2.353-0.358-4.758-0.116-6.992 0.704l-0.461 0.176c-3.023 1.225-6.322 1.612-9.547 1.12-1.384-0.213-2.827-0.557-4.091-1.188-0.461-0.228-0.816-0.625-0.991-1.108s-0.159-1.015 0.047-1.486c0.206-0.471 0.586-0.844 1.060-1.043s1.007-0.207 1.487-0.023l0.176 0.077c0.909 0.427 1.933 0.665 2.92 0.817 1.792 0.275 4.244 0.293 6.992-0.705l0.461-0.176c3.024-1.225 6.322-1.612 9.547-1.12 1.384 0.213 2.825 0.559 4.088 1.187 0.472 0.241 0.83 0.657 0.998 1.159s0.131 1.050-0.102 1.526c-0.492 0.984-1.496 1.209-2.673 0.899l-2.919-0.816zM24.196 16.977c-2.353-0.358-4.758-0.116-6.992 0.704l-0.461 0.176c-3.023 1.225-6.322 1.612-9.547 1.12-1.384-0.213-2.827-0.557-4.091-1.188-0.461-0.228-0.816-0.625-0.991-1.108s-0.159-1.015 0.047-1.486c0.206-0.471 0.586-0.844 1.060-1.043s1.007-0.207 1.487-0.023l0.176 0.077c0.909 0.427 1.933 0.665 2.92 0.817 1.792 0.275 4.244 0.293 6.992-0.705l0.461-0.176c3.024-1.225 6.322-1.612 9.547-1.12 1.384 0.213 2.825 0.559 4.088 1.187 0.472 0.241 0.83 0.657 0.998 1.159s0.131 1.050-0.102 1.526c-0.492 0.985-1.496 1.209-2.673 0.899l-2.919-0.816zM16.257 26.044l0.485-0.187c2.36-0.96 4.935-1.264 7.453-0.88l2.92 0.816c1.176 0.311 2.18 0.087 2.673-0.899 0.232-0.476 0.268-1.024 0.1-1.526s-0.526-0.918-0.998-1.158c-1.263-0.629-2.704-0.973-4.088-1.187-3.051-0.465-6.17-0.144-9.063 0.933l-0.484 0.187c-2.936 1.173-5.563 1.171-7.453 0.88-0.845-0.131-1.72-0.324-2.524-0.645l-0.396-0.173c-0.475-0.236-1.025-0.273-1.528-0.104s-0.918 0.531-1.154 1.007c-0.236 0.475-0.273 1.025-0.104 1.528s0.531 0.918 1.007 1.154c1.263 0.631 2.707 0.975 4.091 1.187 2.336 0.36 5.524 0.373 9.061-0.933v0.001z"></path>
        </symbol>
        <symbol id="icon-feature4" viewBox="0 0 32 32">
            <path d="M2.667 16c0-7.364 5.969-13.333 13.333-13.333 0.617 0 0.72 0.924 0.191 1.244-1.126 0.68-2.082 1.607-2.797 2.711s-1.168 2.356-1.327 3.662c-0.159 1.305-0.019 2.63 0.41 3.873s1.135 2.372 2.065 3.302c0.93 0.93 2.059 1.636 3.302 2.065s2.568 0.569 3.873 0.41c1.305-0.159 2.558-0.613 3.662-1.327s2.031-1.671 2.711-2.797c0.32-0.528 1.244-0.427 1.244 0.191 0 1.517-0.253 2.975-0.72 4.333h0.72c0.265 0 0.52 0.105 0.707 0.293s0.293 0.442 0.293 0.707-0.105 0.52-0.293 0.707c-0.188 0.188-0.442 0.293-0.707 0.293h-26.667c-0.265 0-0.52-0.105-0.707-0.293s-0.293-0.442-0.293-0.707 0.105-0.52 0.293-0.707c0.188-0.188 0.442-0.293 0.707-0.293h0.72c-0.478-1.395-0.721-2.859-0.72-4.333zM6.667 24.333c-0.265 0-0.52 0.105-0.707 0.293s-0.293 0.442-0.293 0.707 0.105 0.52 0.293 0.707c0.188 0.188 0.442 0.293 0.707 0.293h18.667c0.265 0 0.52-0.105 0.707-0.293s0.293-0.442 0.293-0.707-0.105-0.52-0.293-0.707c-0.188-0.188-0.442-0.293-0.707-0.293h-18.667zM10.667 28.333c-0.265 0-0.52 0.105-0.707 0.293s-0.293 0.442-0.293 0.707 0.105 0.52 0.293 0.707c0.188 0.188 0.442 0.293 0.707 0.293h10.667c0.265 0 0.52-0.105 0.707-0.293s0.293-0.442 0.293-0.707-0.105-0.52-0.293-0.707c-0.188-0.188-0.442-0.293-0.707-0.293h-10.667zM26.533 3.076c-0.047-0.121-0.13-0.225-0.237-0.298s-0.234-0.112-0.363-0.112c-0.13 0-0.256 0.039-0.363 0.112s-0.19 0.177-0.237 0.298l-0.573 1.46c-0.032 0.083-0.081 0.158-0.143 0.221s-0.137 0.112-0.22 0.145l-1.455 0.576c-0.121 0.048-0.224 0.131-0.297 0.238s-0.112 0.234-0.112 0.364 0.039 0.256 0.112 0.364c0.073 0.107 0.176 0.19 0.297 0.238l1.455 0.576c0.082 0.032 0.157 0.081 0.22 0.144s0.111 0.138 0.143 0.22l0.573 1.459c0.216 0.547 0.987 0.547 1.2 0l0.573-1.46c0.032-0.083 0.081-0.158 0.144-0.22s0.138-0.112 0.22-0.144l1.455-0.576c0.12-0.048 0.224-0.131 0.297-0.238s0.112-0.234 0.112-0.364c0-0.13-0.039-0.256-0.112-0.364s-0.176-0.19-0.297-0.238l-1.455-0.576c-0.083-0.032-0.158-0.081-0.221-0.144s-0.112-0.138-0.144-0.221l-0.573-1.459z"></path>
            <path d="M21.377 10.84c-0.047-0.121-0.13-0.225-0.237-0.298s-0.234-0.112-0.363-0.112c-0.13 0-0.256 0.039-0.363 0.112s-0.19 0.177-0.237 0.298l-0.209 0.532c-0.032 0.082-0.081 0.157-0.143 0.22s-0.137 0.112-0.22 0.144l-0.531 0.211c-0.12 0.048-0.224 0.131-0.297 0.238s-0.112 0.234-0.112 0.364c0 0.13 0.039 0.256 0.112 0.364s0.176 0.19 0.297 0.238l0.531 0.209c0.167 0.067 0.297 0.197 0.363 0.365l0.209 0.532c0.215 0.547 0.985 0.547 1.2 0l0.209-0.533c0.032-0.082 0.081-0.157 0.143-0.22s0.137-0.112 0.219-0.144l0.531-0.209c0.12-0.048 0.224-0.131 0.297-0.238s0.112-0.234 0.112-0.364-0.039-0.256-0.112-0.364c-0.073-0.107-0.176-0.19-0.297-0.238l-0.531-0.211c-0.082-0.032-0.157-0.081-0.219-0.144s-0.111-0.138-0.143-0.22l-0.209-0.532z"></path>
        </symbol>
        <symbol id="icon-feature5" viewBox="0 0 32 32">
            <path d="M19.333 6c0 0.884-0.351 1.732-0.976 2.357s-1.473 0.976-2.357 0.976c-0.884 0-1.732-0.351-2.357-0.976s-0.976-1.473-0.976-2.357c0-0.884 0.351-1.732 0.976-2.357s1.473-0.976 2.357-0.976c0.884 0 1.732 0.351 2.357 0.976s0.976 1.473 0.976 2.357z"></path>
            <path d="M16 13.027c-0.383-0.004-0.767 0.019-1.147 0.069l-1.189 0.2c-2.684 0.452-4.664 2.803-4.664 5.571 0.001 0.709-0.173 1.408-0.505 2.035s-0.814 1.162-1.402 1.56l-0.133 0.092c-0.34 0.229-0.709 0.411-1.097 0.541l-1.543 0.52c-0.251 0.085-0.526 0.066-0.764-0.051s-0.419-0.325-0.504-0.577-0.066-0.526 0.051-0.764c0.118-0.238 0.325-0.419 0.577-0.504l1.545-0.52c0.219-0.074 0.424-0.175 0.616-0.304l0.136-0.092c0.316-0.214 0.574-0.503 0.753-0.841s0.271-0.714 0.27-1.095c0-3.729 2.671-6.927 6.331-7.543l1.187-0.2c0.491-0.071 0.987-0.103 1.483-0.096 0.516 0 1.076 0.027 1.483 0.096l1.187 0.2c3.661 0.616 6.331 3.813 6.331 7.543 0 0.781 0.387 1.507 1.024 1.936l0.135 0.092c0.193 0.129 0.399 0.23 0.617 0.304l1.544 0.52c0.251 0.085 0.459 0.266 0.577 0.504s0.136 0.513 0.051 0.764c-0.085 0.251-0.266 0.459-0.504 0.577s-0.513 0.136-0.764 0.051l-1.543-0.52c-0.388-0.13-0.757-0.312-1.096-0.541l-0.135-0.092c-0.588-0.397-1.069-0.933-1.402-1.56s-0.506-1.326-0.505-2.035c0-2.768-1.98-5.119-4.663-5.571l-1.189-0.2c-0.38-0.050-0.763-0.073-1.147-0.068zM11.868 20.735c0.079-0.105 0.178-0.194 0.29-0.261s0.238-0.111 0.368-0.129c0.13-0.019 0.262-0.011 0.39 0.021s0.247 0.090 0.352 0.169c0.105 0.079 0.194 0.178 0.261 0.291s0.111 0.238 0.13 0.368c0.018 0.13 0.011 0.262-0.021 0.39s-0.090 0.247-0.169 0.352l-1.261 1.683c-0.141 0.195-0.292 0.382-0.453 0.56-0.376 0.394-0.834 0.699-1.343 0.893-0.207 0.077-0.421 0.131-0.693 0.2l-0.047 0.011-2.392 0.599c-0.294 0.075-0.55 0.254-0.721 0.505s-0.245 0.555-0.208 0.856c0.037 0.301 0.183 0.578 0.409 0.78s0.519 0.313 0.822 0.314h0.912c2.061 0 4.067-0.668 5.716-1.905l2.524-1.896c0.105-0.079 0.225-0.136 0.352-0.169s0.26-0.040 0.39-0.021 0.255 0.063 0.368 0.13c0.113 0.067 0.212 0.155 0.291 0.26s0.136 0.225 0.169 0.352c0.033 0.127 0.040 0.26 0.021 0.39s-0.063 0.255-0.129 0.368c-0.067 0.113-0.155 0.212-0.261 0.291l-1.205 0.904 0.655 0.247c0.712 0.267 1.033 0.387 1.356 0.488 0.971 0.303 1.975 0.485 2.991 0.543 0.337 0.019 0.68 0.019 1.44 0.019h1.252c0.303-0.002 0.595-0.114 0.822-0.315s0.372-0.479 0.409-0.78c0.037-0.301-0.037-0.605-0.208-0.855s-0.427-0.43-0.721-0.505l-2.073-0.519c-0.635-0.159-1.135-0.283-1.581-0.541-0.134-0.078-0.263-0.163-0.387-0.256-0.411-0.312-0.72-0.724-1.111-1.248l-0.068-0.089-0.969-1.292c-0.079-0.105-0.136-0.225-0.169-0.352s-0.040-0.26-0.021-0.39 0.063-0.255 0.129-0.368c0.067-0.113 0.155-0.212 0.261-0.291s0.225-0.136 0.352-0.169c0.127-0.033 0.26-0.040 0.39-0.021s0.255 0.063 0.368 0.13c0.113 0.067 0.212 0.155 0.291 0.26l0.969 1.292c0.491 0.655 0.628 0.824 0.788 0.945 0.056 0.041 0.115 0.080 0.176 0.116 0.173 0.1 0.383 0.161 1.177 0.36l1.964 0.491c0.768 0.192 1.44 0.659 1.888 1.312s0.642 1.447 0.546 2.234c-0.097 0.786-0.477 1.51-1.070 2.035s-1.358 0.815-2.15 0.816h-1.284c-0.719 0-1.12 0-1.52-0.023-1.18-0.067-2.348-0.279-3.476-0.631-0.381-0.12-0.757-0.26-1.429-0.512l-1.909-0.716c-1.876 1.227-4.069 1.881-6.311 1.881h-0.912c-0.792-0.001-1.557-0.291-2.15-0.816s-0.974-1.249-1.070-2.035c-0.097-0.786 0.097-1.581 0.545-2.234s1.12-1.12 1.888-1.312l2.391-0.597c0.34-0.085 0.432-0.109 0.512-0.14 0.231-0.088 0.44-0.227 0.611-0.405 0.059-0.063 0.117-0.136 0.328-0.417l1.233-1.643z"></path>
        </symbol>
        <symbol id="icon-mail" viewBox="0 0 32 32">
            <path d="M5.333 26.667c-0.733 0-1.361-0.261-1.883-0.783s-0.783-1.15-0.784-1.884v-16c0-0.733 0.261-1.361 0.784-1.883s1.15-0.783 1.883-0.784h21.333c0.733 0 1.361 0.261 1.884 0.784s0.784 1.15 0.783 1.883v16c0 0.733-0.261 1.361-0.783 1.884s-1.15 0.784-1.884 0.783h-21.333zM15.999 17.334l-10.667-6.667v13.333h21.333v-13.333l-10.667 6.667zM15.999 14.667l10.667-6.667h-21.333l10.667 6.667zM5.333 10.667v-0z"></path>
        </symbol>
        <symbol id="icon-step1" viewBox="0 0 32 32">
            <path d="M27.020 14.786c-2.054-5.732-6.41-10.88-11.020-14.786-4.61 3.906-8.964 9.054-11.020 14.786-1.27 3.544-1.396 7.392 0.394 10.794 2.058 3.91 6.208 6.42 10.626 6.42s8.568-2.51 10.626-6.42c1.79-3.402 1.664-7.248 0.394-10.794zM23.086 23.718c-0.687 1.285-1.707 2.361-2.955 3.115s-2.674 1.157-4.131 1.167c-1.712-0.009-3.378-0.563-4.754-1.582 0.413 0.053 0.831 0.081 1.254 0.082 1.821-0.013 3.605-0.517 5.164-1.459s2.834-2.287 3.692-3.893c1.402-2.666 1.28-5.432 0.746-7.636 0.455 0.88 0.839 1.754 1.152 2.622 0.706 1.97 1.25 4.886-0.168 7.582v0.002z"></path>
        </symbol>
        <symbol id="icon-step2" viewBox="0 0 32 32">
            <path d="M27.333 14.667h-2v-5.333c0-0.707-0.281-1.386-0.781-1.886s-1.178-0.781-1.886-0.781h-5.333v-2c0-0.884-0.351-1.732-0.976-2.357s-1.473-0.976-2.357-0.976c-0.884 0-1.732 0.351-2.357 0.976s-0.976 1.473-0.976 2.357v2h-5.333c-0.707 0-1.386 0.281-1.886 0.781s-0.781 1.178-0.781 1.886v5.067h2c2 0 3.6 1.6 3.6 3.6s-1.6 3.6-3.6 3.6h-2v5.067c0 0.707 0.281 1.386 0.781 1.886s1.178 0.781 1.886 0.781h5.067v-2c0-2 1.6-3.6 3.6-3.6s3.6 1.6 3.6 3.6v2h5.067c0.707 0 1.386-0.281 1.886-0.781s0.781-1.178 0.781-1.886v-5.333h2c0.884 0 1.732-0.351 2.357-0.976s0.976-1.473 0.976-2.357c0-0.884-0.351-1.732-0.976-2.357s-1.473-0.976-2.357-0.976z"></path>
        </symbol>
        <symbol id="icon-step3" viewBox="0 0 32 32">
            <path d="M12.204 7.211c1.689-3.029 2.533-4.544 3.796-4.544s2.107 1.515 3.796 4.544l0.437 0.784c0.48 0.861 0.72 1.292 1.093 1.576s0.84 0.389 1.773 0.6l0.848 0.192c3.28 0.743 4.919 1.113 5.309 2.368 0.389 1.253-0.728 2.561-2.964 5.176l-0.579 0.676c-0.635 0.743-0.953 1.115-1.096 1.573-0.143 0.46-0.095 0.956 0.001 1.947l0.088 0.903c0.337 3.489 0.507 5.233-0.515 6.008s-2.557 0.068-5.627-1.345l-0.796-0.365c-0.872-0.403-1.308-0.603-1.771-0.603s-0.899 0.2-1.771 0.603l-0.795 0.365c-3.071 1.413-4.607 2.12-5.627 1.347-1.023-0.776-0.853-2.52-0.516-6.009l0.088-0.901c0.096-0.992 0.144-1.488 0-1.947-0.141-0.46-0.46-0.832-1.095-1.573l-0.579-0.677c-2.236-2.613-3.353-3.921-2.964-5.176s2.031-1.627 5.311-2.368l0.848-0.192c0.932-0.211 1.397-0.316 1.772-0.6s0.613-0.715 1.093-1.576l0.437-0.784z"></path>
        </symbol>
        <symbol id="icon-step4" viewBox="0 0 32 32">
            <path d="M32.267 4.8c0 2.51-2.955 6.255-4.23 7.75-0.19 0.22-0.47 0.305-0.725 0.25h-4.645c-0.885 0-1.6 0.715-1.6 1.6s0.715 1.6 1.6 1.6h4.8c2.65 0 4.8 2.15 4.8 4.8s-2.15 4.8-4.8 4.8h-13.82c0.435-0.495 0.965-1.13 1.5-1.84 0.315-0.42 0.64-0.88 0.95-1.36h11.37c0.885 0 1.6-0.715 1.6-1.6s-0.715-1.6-1.6-1.6h-4.8c-2.65 0-4.8-2.15-4.8-4.8s2.15-4.8 4.8-4.8h1.99c-1.050-1.575-1.99-3.385-1.99-4.8 0-2.65 2.15-4.8 4.8-4.8s4.8 2.15 4.8 4.8zM12.522 24.455c-0.19 0.215-0.36 0.405-0.505 0.565l-0.090 0.1-0.010-0.010c-0.3 0.23-0.73 0.2-1-0.090-1.26-1.37-4.25-4.895-4.25-7.42 0-2.65 2.15-4.8 4.8-4.8s4.8 2.15 4.8 4.8c0 1.5-1.055 3.35-2.175 4.895-0.535 0.735-1.085 1.4-1.54 1.925l-0.030 0.035zM13.067 17.6c0-0.885-0.715-1.6-1.6-1.6s-1.6 0.715-1.6 1.6c0 0.885 0.715 1.6 1.6 1.6s1.6-0.715 1.6-1.6zM27.467 6.4c0.885 0 1.6-0.715 1.6-1.6s-0.715-1.6-1.6-1.6c-0.885 0-1.6 0.715-1.6 1.6s0.715 1.6 1.6 1.6z"></path>
        </symbol>
        <symbol id="icon-step5" viewBox="0 0 32 32">
            <path d="M16 4.267c-7.104 7.104-7.104 12.096 0 19.2 7.104-7.104 7.104-12.096 0-19.2zM5.461 8.107c-2.603 9.728-0.235 13.824 9.472 16.427 0.043-0.171 0.085-0.341 0.128-0.491-3.52-3.584-5.461-6.784-5.461-10.176 0-1.323 0.299-2.645 0.875-3.947-1.387-0.683-3.051-1.28-5.013-1.813zM26.539 8.107c-1.963 0.533-3.627 1.131-5.013 1.813 0.576 1.301 0.875 2.624 0.875 3.947 0 3.392-1.941 6.592-5.461 10.176 0.043 0.149 0.085 0.32 0.128 0.491 9.707-2.603 12.075-6.699 9.472-16.427zM0 14.933c0 8 2.667 10.667 10.667 10.667 0-0.469 0-0.939-0.021-1.365-2.816-1.173-4.8-2.645-5.995-4.715-0.747-1.28-1.131-2.731-1.237-4.373-1.003-0.149-2.133-0.213-3.413-0.213zM32 14.933c-1.28 0-2.411 0.064-3.413 0.213-0.107 1.643-0.491 3.093-1.237 4.373-1.195 2.069-3.179 3.541-5.995 4.715-0.021 0.427-0.021 0.896-0.021 1.365 8 0 10.667-2.667 10.667-10.667z"></path>
        </symbol>
        <symbol id="arrow" viewBox="0 0 42 42" fill="none">
            <path stroke-width="4" stroke="currentColor" stroke-linecap="round" stroke-linejoin="round" d="M8.75 15.75 21 28 33.25 15.75" />
        </symbol>
        <symbol id="Playstore" viewBox="0 0 35 40" fill="none">
            <path fill="var(--color6, #ea4335)" d="M16.3033 19.0584 0.1489 36.5913c15e-4 31e-4 15e-4 77e-4 31e-4 0.0108 0.4961 1.9038 2.1954 3.3049 4.2134 3.3049 0.8072 0 1.5643-0.2234 2.2137-0.6144l0.0516-0.0311 18.183-10.7292z" />
            <path fill="var(--color5, #fbbc04)" d="M32.6457 16.0729 32.6306 16.062l-7.8504-4.6532-8.8442 8.0481 8.8761 9.0736 7.8078-4.6066c1.3686-0.7572 2.2987-2.2328 2.2987-3.9333 0-1.6912-0.9164-3.159-2.2729-3.9177z" />
            <path fill="var(--color4, #4285f4)" d="M0.1487 3.3145C0.0516 3.6806 0 4.0654 0 4.4626v30.982c0 0.3972 0.0516 0.782 0.1502 1.1466l16.7082-17.0844z" />
            <path fill="var(--color3, #34a853)" d="M16.4227 19.9534l8.3601-8.5477L6.6211 0.6377C5.9611 0.2328 5.1903 0 4.3665 0 2.3485 0 0.6461 1.4042 0.15 3.3096c0 15e-4-16e-4 3e-3-16e-4 46e-4z" />
        </symbol>
        <symbol id="icon-path90" viewBox="0 0 159 32">
            <path d="M122.42 24.284h3.467v-23.437h-3.467v23.437zM153.645 9.29l-3.974 10.161h-0.119l-4.124-10.161h-3.734l6.185 14.201-3.525 7.9h3.613l9.533-22.102h-3.855zM133.985 21.622c-1.138 0-2.72-0.572-2.72-1.991 0-1.807 1.971-2.501 3.675-2.501 1.523 0 2.243 0.332 3.167 0.784-0.269 2.171-2.121 3.708-4.122 3.708zM134.403 8.778c-2.51 0-5.111 1.116-6.184 3.588l3.076 1.295c0.658-1.295 1.882-1.719 3.168-1.719 1.792 0 3.615 1.086 3.644 3.017v0.24c-0.627-0.362-1.97-0.904-3.615-0.904-3.316 0-6.694 1.839-6.694 5.276 0 3.137 2.719 5.157 5.767 5.157 2.331 0 3.617-1.055 4.424-2.293h0.118v1.809h3.347v-8.986c0-4.16-3.077-6.481-7.052-6.481zM112.978 12.143h-4.931v-8.033h4.931c2.592 0 4.063 2.165 4.063 4.016 0 1.817-1.471 4.018-4.063 4.018zM112.889 0.847h-8.306v23.437h3.465v-8.879h4.842c3.842 0 7.619-2.808 7.619-7.28s-3.777-7.278-7.619-7.278zM67.593 21.625c-2.395 0-4.399-2.023-4.399-4.801 0-2.808 2.005-4.863 4.399-4.863 2.365 0 4.219 2.055 4.219 4.863 0 2.779-1.854 4.801-4.219 4.801zM71.575 10.602h-0.121c-0.778-0.935-2.274-1.781-4.16-1.781-3.952 0-7.572 3.502-7.572 8.003 0 4.47 3.621 7.943 7.572 7.943 1.886 0 3.381-0.845 4.16-1.813h0.121v1.149c0 3.050-1.616 4.681-4.221 4.681-2.125 0-3.443-1.541-3.981-2.84l-3.023 1.269c0.868 2.115 3.173 4.711 7.004 4.711 4.071 0 7.513-2.416 7.513-8.305v-14.318h-3.292v1.299zM77.262 24.284h3.472v-23.438h-3.472v23.438zM85.85 16.552c-0.089-3.080 2.365-4.651 4.13-4.651 1.378 0 2.545 0.694 2.933 1.691l-7.064 2.96zM96.626 13.894c-0.658-1.781-2.664-5.073-6.764-5.073-4.071 0-7.452 3.23-7.452 7.973 0 4.47 3.352 7.973 7.84 7.973 3.623 0 5.718-2.235 6.586-3.534l-2.694-1.813c-0.897 1.329-2.125 2.205-3.892 2.205-1.765 0-3.023-0.816-3.831-2.415l10.566-4.411-0.359-0.906zM12.451 11.267v3.382h8.020c-0.24 1.903-0.868 3.292-1.824 4.258-1.169 1.179-2.995 2.478-6.196 2.478-4.94 0-8.801-4.018-8.801-9.001 0-4.985 3.861-9.001 8.801-9.001 2.664 0 4.609 1.057 6.045 2.417l2.365-2.387c-2.006-1.933-4.669-3.414-8.41-3.414-6.764 0-12.451 5.559-12.451 12.385s5.687 12.383 12.451 12.383c3.651 0 6.404-1.209 8.559-3.474 2.216-2.235 2.904-5.375 2.904-7.913 0-0.786-0.059-1.509-0.18-2.113h-11.283zM33.034 21.625c-2.395 0-4.461-1.993-4.461-4.831 0-2.87 2.066-4.833 4.461-4.833 2.393 0 4.459 1.963 4.459 4.833 0 2.838-2.066 4.831-4.459 4.831zM33.034 8.821c-4.371 0-7.933 3.352-7.933 7.973 0 4.591 3.561 7.973 7.933 7.973 4.37 0 7.931-3.382 7.931-7.973 0-4.621-3.561-7.973-7.931-7.973zM50.336 21.625c-2.395 0-4.461-1.993-4.461-4.831 0-2.87 2.066-4.833 4.461-4.833s4.459 1.963 4.459 4.833c0 2.838-2.064 4.831-4.459 4.831zM50.336 8.821c-4.37 0-7.931 3.352-7.931 7.973 0 4.591 3.561 7.973 7.931 7.973s7.931-3.382 7.931-7.973c0-4.621-3.561-7.973-7.931-7.973z"></path>
        </symbol>
        <symbol id="icon-Subtext" viewBox="0 0 185 32">
            <path d="M29.633 16.495c0 4.093-1.214 7.354-3.643 9.782-2.729 2.893-6.317 4.339-10.765 4.339-4.257 0-7.859-1.473-10.806-4.42s-4.42-6.576-4.42-10.888 1.474-7.94 4.42-10.887c2.947-2.947 6.549-4.42 10.806-4.42 2.156 0 4.189 0.382 6.099 1.146s3.479 1.842 4.707 3.234l-2.701 2.701c-0.9-1.091-2.074-1.937-3.52-2.538-1.419-0.628-2.947-0.941-4.584-0.941-3.193 0-5.894 1.105-8.104 3.315-2.183 2.237-3.274 5.034-3.274 8.391s1.091 6.153 3.274 8.391c2.21 2.21 4.912 3.315 8.104 3.315 2.92 0 5.348-0.818 7.286-2.456s3.056-3.888 3.356-6.753h-10.642v-3.52h14.203c0.136 0.764 0.205 1.501 0.205 2.21zM51.318 0.655v3.602h-13.343v9.291h12.033v3.52h-12.033v9.291h13.343v3.602h-17.109v-29.306h17.109zM66.38 4.257v25.704h-3.766v-25.704h-8.186v-3.602h20.138v3.602h-8.186zM91.256 29.961h-3.766v-29.306h3.766v29.306zM107.15 4.257v25.704h-3.766v-25.704h-8.186v-3.602h20.138v3.602h-8.186zM156.153 15.308c0 4.339-1.446 7.968-4.339 10.888-2.92 2.947-6.494 4.42-10.724 4.42-4.257 0-7.831-1.473-10.724-4.42-2.893-2.92-4.339-6.549-4.339-10.888s1.446-7.968 4.339-10.887c2.892-2.947 6.467-4.42 10.724-4.42s7.831 1.487 10.724 4.461c2.892 2.92 4.339 6.535 4.339 10.847zM129.876 15.308c0 3.384 1.064 6.18 3.193 8.391 2.156 2.21 4.83 3.315 8.022 3.315s5.853-1.105 7.981-3.315c2.156-2.183 3.233-4.98 3.233-8.391s-1.078-6.208-3.233-8.391c-2.128-2.21-4.789-3.315-7.981-3.315s-5.867 1.105-8.022 3.315c-2.128 2.21-3.193 5.007-3.193 8.391zM164.362 29.961h-3.765v-29.306h4.584l14.244 22.798h0.164l-0.164-5.648v-17.15h3.766v29.306h-3.929l-14.899-23.903h-0.164l0.164 5.648v18.255z"></path>
        </symbol>
    </defs>
</svg>